<svg xmlns="http://www.w3.org/2000/svg" xmlns:xlink="http://www.w3.org/1999/xlink" width="500" zoomAndPan="magnify" viewBox="0 0 375 374.999991" height="500" preserveAspectRatio="xMidYMid meet" version="1.0"><defs><clipPath id="id1"><path d="M 66.507812 57 L 124 57 L 124 148 L 66.507812 148 Z M 66.507812 57 " clip-rule="nonzero"/></clipPath></defs><path fill="#f79745" d="M 159.910156 274.9375 C 149.640625 274.9375 141.3125 266.609375 141.3125 256.335938 C 141.3125 246.0625 149.640625 237.730469 159.910156 237.730469 C 170.179688 237.730469 178.503906 246.0625 178.503906 256.335938 C 178.503906 266.609375 170.179688 274.9375 159.910156 274.9375 Z M 305.664062 163.320312 C 301.074219 102.691406 250.371094 54.921875 187.003906 63.1875 C 127.636719 70.929688 88.632812 125.65625 88.632812 182.382812 C 88.632812 256.582031 146.820312 320.410156 187.460938 301.117188 C 219.734375 285.800781 173.453125 260.921875 203.535156 245.082031 C 220.980469 235.894531 234.320312 261.15625 250.371094 258.863281 C 276.085938 255.1875 308.640625 202.59375 305.664062 163.320312 " fill-opacity="1" fill-rule="nonzero"/><path fill="#0f0a0a" d="M 159.910156 274.9375 L 159.910156 273.363281 C 155.203125 273.363281 150.957031 271.457031 147.871094 268.375 C 144.789062 265.289062 142.886719 261.039062 142.882812 256.335938 C 142.886719 251.625 144.789062 247.378906 147.871094 244.292969 C 150.957031 241.210938 155.203125 239.308594 159.910156 239.308594 C 164.613281 239.308594 168.859375 241.210938 171.945312 244.292969 C 175.027344 247.378906 176.929688 251.625 176.929688 256.335938 C 176.929688 261.039062 175.027344 265.289062 171.945312 268.375 C 168.859375 271.457031 164.613281 273.363281 159.910156 273.363281 L 159.910156 276.511719 C 171.050781 276.511719 180.078125 267.480469 180.082031 256.335938 C 180.078125 245.1875 171.050781 236.160156 159.910156 236.15625 C 148.769531 236.160156 139.734375 245.1875 139.734375 256.335938 C 139.734375 267.480469 148.769531 276.511719 159.910156 276.511719 Z M 305.664062 163.320312 L 307.238281 163.203125 C 305.085938 134.8125 292.960938 109.191406 274.179688 90.65625 C 255.398438 72.117188 229.933594 60.671875 201.214844 60.675781 C 196.492188 60.675781 191.679688 60.988281 186.796875 61.625 C 156.679688 65.550781 131.710938 81.414062 114.320312 103.441406 C 96.921875 125.46875 87.058594 153.65625 87.058594 182.382812 C 87.058594 215.296875 98.363281 246.136719 114.550781 268.820312 C 122.648438 280.160156 131.972656 289.46875 141.769531 295.96875 C 151.5625 302.46875 161.855469 306.167969 171.855469 306.171875 C 177.449219 306.175781 182.9375 305.007812 188.132812 302.542969 C 192.90625 300.273438 196.148438 297.75 198.210938 294.941406 C 200.277344 292.136719 201.082031 289.070312 201.070312 286.054688 C 201.0625 281.382812 199.292969 276.785156 197.632812 272.3125 C 195.957031 267.847656 194.378906 263.503906 194.394531 259.640625 C 194.398438 257.25 194.945312 255.054688 196.410156 252.882812 C 197.878906 250.714844 200.332031 248.542969 204.265625 246.472656 C 206.761719 245.164062 209.089844 244.640625 211.371094 244.636719 C 214.320312 244.636719 217.238281 245.535156 220.191406 246.96875 C 224.625 249.113281 229.066406 252.445312 233.648438 255.300781 C 235.941406 256.726562 238.277344 258.035156 240.703125 259 C 243.125 259.964844 245.648438 260.585938 248.277344 260.585938 C 249.042969 260.585938 249.8125 260.53125 250.59375 260.421875 C 257.203125 259.464844 263.964844 255.601562 270.464844 249.851562 C 280.214844 241.214844 289.40625 228.246094 296.210938 213.75 C 303.015625 199.25 307.425781 183.230469 307.429688 168.449219 C 307.429688 166.679688 307.367188 164.929688 307.238281 163.203125 L 305.664062 163.320312 L 304.09375 163.441406 C 304.21875 165.085938 304.277344 166.757812 304.277344 168.449219 C 304.292969 187.320312 296.675781 208.84375 286.003906 225.96875 C 280.675781 234.53125 274.589844 242 268.378906 247.492188 C 262.171875 253.003906 255.839844 256.5 250.148438 257.304688 C 249.523438 257.390625 248.898438 257.433594 248.277344 257.433594 C 245.445312 257.4375 242.601562 256.539062 239.699219 255.105469 C 235.339844 252.960938 230.910156 249.625 226.285156 246.769531 C 223.972656 245.339844 221.597656 244.03125 219.125 243.066406 C 216.652344 242.101562 214.070312 241.488281 211.371094 241.488281 C 208.59375 241.484375 205.707031 242.152344 202.800781 243.683594 C 198.550781 245.925781 195.644531 248.398438 193.804688 251.113281 C 191.957031 253.824219 191.238281 256.753906 191.242188 259.640625 C 191.253906 264.332031 193.023438 268.941406 194.683594 273.417969 C 196.363281 277.882812 197.9375 282.210938 197.921875 286.054688 C 197.917969 288.546875 197.316406 290.820312 195.671875 293.078125 C 194.023438 295.328125 191.246094 297.578125 186.785156 299.695312 C 182.015625 301.957031 177.011719 303.023438 171.855469 303.023438 C 162.648438 303.027344 152.925781 299.589844 143.511719 293.34375 C 129.390625 283.984375 116.027344 268.320312 106.238281 248.949219 C 96.4375 229.582031 90.203125 206.523438 90.203125 182.382812 C 90.203125 154.378906 99.839844 126.847656 116.789062 105.390625 C 133.746094 83.9375 157.960938 68.566406 187.207031 64.75 C 191.953125 64.128906 196.628906 63.828125 201.214844 63.828125 C 229.085938 63.832031 253.726562 74.90625 271.964844 92.898438 C 290.199219 110.894531 302.003906 135.800781 304.09375 163.441406 L 305.664062 163.320312 " fill-opacity="1" fill-rule="nonzero"/><path fill="#b26843" d="M 264.722656 217.992188 C 264.722656 230.359375 254.695312 240.386719 242.328125 240.386719 C 229.96875 240.386719 219.945312 230.359375 219.945312 217.992188 C 219.945312 205.625 229.96875 195.601562 242.328125 195.601562 C 254.695312 195.601562 264.722656 205.625 264.722656 217.992188 " fill-opacity="1" fill-rule="nonzero"/><path fill="#0f0a0a" d="M 264.722656 217.992188 L 263.144531 217.992188 C 263.144531 223.746094 260.816406 228.941406 257.050781 232.710938 C 253.277344 236.480469 248.082031 238.808594 242.328125 238.808594 C 236.578125 238.808594 231.386719 236.480469 227.613281 232.710938 C 223.847656 228.941406 221.519531 223.746094 221.519531 217.992188 C 221.519531 212.242188 223.847656 207.046875 227.613281 203.273438 C 231.386719 199.503906 236.578125 197.179688 242.328125 197.179688 C 248.082031 197.179688 253.277344 199.503906 257.050781 203.273438 C 260.816406 207.046875 263.144531 212.242188 263.144531 217.992188 L 266.292969 217.992188 C 266.292969 204.753906 255.5625 194.027344 242.328125 194.023438 C 229.097656 194.027344 218.371094 204.753906 218.371094 217.992188 C 218.371094 231.230469 229.097656 241.957031 242.328125 241.957031 C 255.5625 241.957031 266.292969 231.230469 266.292969 217.992188 L 264.722656 217.992188 " fill-opacity="1" fill-rule="nonzero"/><path fill="#b26843" d="M 287.101562 161.023438 C 287.101562 173.390625 277.078125 183.417969 264.722656 183.417969 C 252.355469 183.417969 242.328125 173.390625 242.328125 161.023438 C 242.328125 148.660156 252.355469 138.632812 264.722656 138.632812 C 277.078125 138.632812 287.101562 148.660156 287.101562 161.023438 " fill-opacity="1" fill-rule="nonzero"/><path fill="#0f0a0a" d="M 287.101562 161.023438 L 285.53125 161.023438 C 285.527344 166.777344 283.203125 171.972656 279.433594 175.742188 C 275.664062 179.515625 270.46875 181.839844 264.722656 181.839844 C 258.964844 181.839844 253.773438 179.515625 250 175.742188 C 246.234375 171.972656 243.90625 166.777344 243.90625 161.023438 C 243.90625 155.273438 246.234375 150.078125 250 146.304688 C 253.773438 142.535156 258.964844 140.207031 264.722656 140.207031 C 270.46875 140.207031 275.664062 142.535156 279.433594 146.304688 C 283.203125 150.078125 285.527344 155.273438 285.53125 161.023438 L 288.679688 161.023438 C 288.679688 147.789062 277.953125 137.054688 264.722656 137.054688 C 251.484375 137.054688 240.757812 147.789062 240.753906 161.023438 C 240.757812 174.261719 251.484375 184.988281 264.722656 184.992188 C 277.953125 184.988281 288.679688 174.261719 288.679688 161.023438 L 287.101562 161.023438 " fill-opacity="1" fill-rule="nonzero"/><path fill="#b26843" d="M 246.464844 112.109375 C 246.464844 124.472656 236.445312 134.5 224.078125 134.5 C 211.714844 134.5 201.691406 124.472656 201.691406 112.109375 C 201.691406 99.742188 211.714844 89.710938 224.078125 89.710938 C 236.445312 89.710938 246.464844 99.742188 246.464844 112.109375 " fill-opacity="1" fill-rule="nonzero"/><path fill="#0f0a0a" d="M 246.464844 112.109375 L 244.886719 112.109375 C 244.886719 117.859375 242.5625 123.054688 238.792969 126.824219 C 235.023438 130.597656 229.828125 132.921875 224.078125 132.921875 C 218.328125 132.921875 213.136719 130.597656 209.363281 126.824219 C 205.59375 123.054688 203.269531 117.859375 203.269531 112.109375 C 203.269531 106.355469 205.59375 101.15625 209.363281 97.386719 C 213.136719 93.617188 218.328125 91.289062 224.078125 91.289062 C 229.828125 91.289062 235.023438 93.617188 238.792969 97.386719 C 242.5625 101.15625 244.886719 106.355469 244.886719 112.109375 L 248.035156 112.109375 C 248.035156 98.867188 237.3125 88.140625 224.078125 88.140625 C 210.84375 88.140625 200.121094 98.867188 200.121094 112.109375 C 200.121094 125.34375 210.84375 136.074219 224.078125 136.074219 C 237.3125 136.074219 248.035156 125.34375 248.035156 112.109375 L 246.464844 112.109375 " fill-opacity="1" fill-rule="nonzero"/><path fill="#b26843" d="M 187.917969 112.109375 C 187.917969 124.472656 177.894531 134.5 165.53125 134.5 C 153.167969 134.5 143.144531 124.472656 143.144531 112.109375 C 143.144531 99.742188 153.167969 89.710938 165.53125 89.710938 C 177.894531 89.710938 187.917969 99.742188 187.917969 112.109375 " fill-opacity="1" fill-rule="nonzero"/><path fill="#0f0a0a" d="M 187.917969 112.109375 L 186.34375 112.109375 C 186.34375 117.859375 184.015625 123.054688 180.246094 126.824219 C 176.472656 130.597656 171.28125 132.921875 165.53125 132.921875 C 159.78125 132.921875 154.585938 130.597656 150.816406 126.824219 C 147.046875 123.054688 144.722656 117.859375 144.722656 112.109375 C 144.722656 106.355469 147.046875 101.15625 150.816406 97.386719 C 154.585938 93.617188 159.78125 91.289062 165.53125 91.289062 C 171.28125 91.289062 176.472656 93.617188 180.246094 97.386719 C 184.015625 101.15625 186.34375 106.355469 186.34375 112.109375 L 189.492188 112.109375 C 189.492188 98.867188 178.761719 88.140625 165.53125 88.140625 C 152.296875 88.140625 141.574219 98.867188 141.574219 112.109375 C 141.574219 125.34375 152.296875 136.074219 165.53125 136.074219 C 178.761719 136.074219 189.492188 125.34375 189.492188 112.109375 L 187.917969 112.109375 " fill-opacity="1" fill-rule="nonzero"/><path fill="#64c9a1" d="M 267.703125 213.972656 C 267.703125 226.332031 257.679688 236.359375 245.316406 236.359375 C 232.953125 236.359375 222.925781 226.332031 222.925781 213.972656 C 222.925781 201.601562 232.953125 191.574219 245.316406 191.574219 C 257.679688 191.574219 267.703125 201.601562 267.703125 213.972656 " fill-opacity="1" fill-rule="nonzero"/><path fill="#000000" d="M 267.703125 213.972656 L 266.125 213.972656 C 266.125 219.71875 263.800781 224.914062 260.03125 228.6875 C 256.261719 232.457031 251.066406 234.785156 245.316406 234.785156 C 239.566406 234.785156 234.371094 232.457031 230.597656 228.6875 C 226.832031 224.914062 224.503906 219.71875 224.503906 213.972656 C 224.503906 208.214844 226.832031 203.019531 230.597656 199.246094 C 234.371094 195.476562 239.566406 193.152344 245.316406 193.152344 C 251.066406 193.152344 256.261719 195.476562 260.03125 199.246094 C 263.800781 203.019531 266.125 208.214844 266.125 213.972656 L 269.277344 213.972656 C 269.273438 200.730469 258.546875 190 245.316406 190 C 232.082031 190 221.355469 200.730469 221.355469 213.972656 C 221.355469 227.203125 232.082031 237.933594 245.316406 237.9375 C 258.546875 237.933594 269.273438 227.203125 269.277344 213.972656 L 267.703125 213.972656 " fill-opacity="1" fill-rule="nonzero"/><path fill="#ee2a28" d="M 290.085938 157 C 290.085938 169.367188 280.0625 179.390625 267.703125 179.390625 C 255.335938 179.390625 245.316406 169.367188 245.316406 157 C 245.316406 144.632812 255.335938 134.605469 267.703125 134.605469 C 280.0625 134.605469 290.085938 144.632812 290.085938 157 " fill-opacity="1" fill-rule="nonzero"/><path fill="#0f0a0a" d="M 290.085938 157 L 288.515625 157 C 288.511719 162.75 286.1875 167.949219 282.414062 171.71875 C 278.644531 175.488281 273.453125 177.816406 267.703125 177.816406 C 261.949219 177.816406 256.757812 175.488281 252.988281 171.71875 C 249.21875 167.949219 246.890625 162.753906 246.890625 157 C 246.890625 151.246094 249.21875 146.050781 252.988281 142.28125 C 256.757812 138.511719 261.949219 136.183594 267.703125 136.183594 C 273.453125 136.183594 278.644531 138.511719 282.414062 142.28125 C 286.1875 146.050781 288.511719 151.246094 288.515625 157 L 291.664062 157 C 291.664062 143.761719 280.933594 133.035156 267.703125 133.03125 C 254.464844 133.035156 243.742188 143.761719 243.742188 157 C 243.742188 170.238281 254.464844 180.96875 267.703125 180.96875 C 280.933594 180.96875 291.664062 170.238281 291.664062 157 L 290.085938 157 " fill-opacity="1" fill-rule="nonzero"/><path fill="#fbbf09" d="M 249.449219 108.082031 C 249.449219 120.449219 239.425781 130.472656 227.0625 130.472656 C 214.699219 130.472656 204.675781 120.449219 204.675781 108.082031 C 204.675781 95.714844 214.699219 85.6875 227.0625 85.6875 C 239.425781 85.6875 249.449219 95.714844 249.449219 108.082031 " fill-opacity="1" fill-rule="nonzero"/><path fill="#0f0a0a" d="M 249.449219 108.082031 L 247.871094 108.082031 C 247.871094 113.835938 245.546875 119.027344 241.777344 122.800781 C 238.007812 126.570312 232.8125 128.898438 227.0625 128.898438 C 221.3125 128.898438 216.121094 126.570312 212.34375 122.800781 C 208.578125 119.027344 206.253906 113.835938 206.25 108.082031 C 206.253906 102.328125 208.578125 97.136719 212.34375 93.363281 C 216.121094 89.589844 221.3125 87.265625 227.0625 87.265625 C 232.8125 87.265625 238.007812 89.589844 241.777344 93.363281 C 245.546875 97.136719 247.871094 102.328125 247.871094 108.082031 L 251.019531 108.082031 C 251.019531 94.847656 240.296875 84.117188 227.0625 84.113281 C 213.832031 84.117188 203.101562 94.847656 203.101562 108.082031 C 203.101562 121.320312 213.832031 132.046875 227.0625 132.050781 C 240.292969 132.046875 251.019531 121.316406 251.019531 108.082031 L 249.449219 108.082031 " fill-opacity="1" fill-rule="nonzero"/><path fill="#42a3ab" d="M 190.902344 108.082031 C 190.902344 120.449219 180.878906 130.472656 168.515625 130.472656 C 156.152344 130.472656 146.132812 120.449219 146.132812 108.082031 C 146.132812 95.714844 156.152344 85.6875 168.515625 85.6875 C 180.878906 85.6875 190.902344 95.714844 190.902344 108.082031 " fill-opacity="1" fill-rule="nonzero"/><path fill="#0f0a0a" d="M 190.902344 108.082031 L 189.324219 108.082031 C 189.324219 113.835938 187 119.027344 183.230469 122.800781 C 179.460938 126.570312 174.269531 128.898438 168.515625 128.898438 C 162.765625 128.898438 157.570312 126.570312 153.800781 122.800781 C 150.035156 119.027344 147.707031 113.835938 147.707031 108.082031 C 147.707031 102.328125 150.035156 97.136719 153.800781 93.363281 C 157.570312 89.589844 162.765625 87.265625 168.515625 87.265625 C 174.269531 87.265625 179.460938 89.589844 183.230469 93.363281 C 187 97.136719 189.324219 102.328125 189.324219 108.082031 L 192.476562 108.082031 C 192.476562 94.847656 181.75 84.117188 168.515625 84.113281 C 155.28125 84.117188 144.558594 94.847656 144.558594 108.082031 C 144.558594 121.316406 155.28125 132.046875 168.515625 132.050781 C 181.75 132.046875 192.476562 121.316406 192.476562 108.082031 L 190.902344 108.082031 " fill-opacity="1" fill-rule="nonzero"/><path fill="#b26843" d="M 143.144531 157 C 143.144531 169.367188 133.121094 179.390625 120.761719 179.390625 C 108.398438 179.390625 98.375 169.367188 98.375 157 C 98.375 144.632812 108.398438 134.605469 120.761719 134.605469 C 133.121094 134.605469 143.144531 144.632812 143.144531 157 " fill-opacity="1" fill-rule="nonzero"/><path fill="#0f0a0a" d="M 143.144531 157 L 141.574219 157 C 141.574219 162.75 139.246094 167.949219 135.476562 171.71875 C 131.707031 175.488281 126.515625 177.816406 120.761719 177.816406 C 115.007812 177.816406 109.816406 175.488281 106.042969 171.71875 C 102.277344 167.949219 99.949219 162.75 99.945312 157 C 99.949219 151.246094 102.277344 146.050781 106.042969 142.28125 C 109.816406 138.511719 115.007812 136.183594 120.761719 136.183594 C 126.515625 136.183594 131.707031 138.511719 135.476562 142.28125 C 139.246094 146.050781 141.574219 151.246094 141.574219 157 L 144.722656 157 C 144.722656 143.761719 133.996094 133.035156 120.761719 133.03125 C 107.527344 133.035156 96.800781 143.761719 96.800781 157 C 96.800781 170.238281 107.527344 180.96875 120.761719 180.96875 C 133.996094 180.96875 144.722656 170.238281 144.722656 157 L 143.144531 157 " fill-opacity="1" fill-rule="nonzero"/><path fill="#9841a6" d="M 146.132812 152.972656 C 146.132812 165.339844 136.105469 175.363281 123.746094 175.363281 C 111.378906 175.363281 101.359375 165.339844 101.359375 152.972656 C 101.359375 140.605469 111.378906 130.585938 123.746094 130.585938 C 136.105469 130.585938 146.132812 140.605469 146.132812 152.972656 " fill-opacity="1" fill-rule="nonzero"/><path fill="#0f0a0a" d="M 146.132812 152.972656 L 144.558594 152.972656 C 144.558594 158.730469 142.230469 163.921875 138.460938 167.695312 C 134.6875 171.460938 129.496094 173.792969 123.746094 173.792969 C 117.992188 173.789062 112.800781 171.460938 109.03125 167.695312 C 105.261719 163.921875 102.933594 158.730469 102.933594 152.972656 C 102.933594 147.21875 105.261719 142.027344 109.03125 138.253906 C 112.800781 134.484375 117.992188 132.160156 123.746094 132.15625 C 129.496094 132.160156 134.6875 134.484375 138.460938 138.253906 C 142.230469 142.027344 144.558594 147.21875 144.558594 152.972656 L 147.707031 152.972656 C 147.707031 139.738281 136.976562 129.007812 123.746094 129.007812 C 110.507812 129.007812 99.785156 139.738281 99.785156 152.972656 C 99.785156 166.210938 110.507812 176.941406 123.746094 176.941406 C 136.976562 176.941406 147.707031 166.210938 147.707031 152.972656 L 146.132812 152.972656 " fill-opacity="1" fill-rule="nonzero"/><path fill="#ffffff" d="M 122.019531 115.617188 C 123.402344 129.859375 114.773438 143.054688 100.65625 145.371094 C 86.542969 147.683594 75.480469 137.550781 70.914062 123.996094 C 66.726562 111.5625 67.457031 95.308594 73.21875 81.117188 C 73.21875 81.117188 74.621094 89.683594 77.113281 95.597656 C 76.863281 76.890625 86.691406 60.160156 86.691406 60.160156 C 86.691406 60.160156 104.476562 84.277344 109.351562 101.914062 C 112.160156 94.261719 104.417969 79.441406 104.417969 79.441406 C 104.417969 79.441406 119.714844 91.777344 122.019531 115.617188 " fill-opacity="1" fill-rule="nonzero"/><g clip-path="url(#id1)"><path fill="#0f0a0a" d="M 122.019531 115.617188 L 120.457031 115.769531 C 120.546875 116.714844 120.59375 117.65625 120.59375 118.589844 C 120.59375 124.785156 118.601562 130.601562 115.09375 135.101562 C 111.578125 139.601562 106.566406 142.800781 100.398438 143.8125 C 99.125 144.023438 97.878906 144.125 96.664062 144.125 C 90.984375 144.121094 85.972656 141.941406 81.808594 138.261719 C 77.652344 134.585938 74.394531 129.394531 72.40625 123.492188 C 70.695312 118.414062 69.824219 112.625 69.824219 106.585938 C 69.820312 98.367188 71.4375 89.6875 74.679688 81.714844 L 73.21875 81.117188 L 71.664062 81.375 C 71.667969 81.394531 72.023438 83.5625 72.695312 86.492188 C 73.371094 89.425781 74.351562 93.101562 75.660156 96.207031 L 78.792969 103.652344 L 78.6875 95.574219 C 78.683594 95.347656 78.683594 95.121094 78.683594 94.894531 C 78.679688 85.960938 81.019531 77.4375 83.375 71.175781 C 84.550781 68.042969 85.726562 65.472656 86.605469 63.695312 C 87.046875 62.804688 87.410156 62.117188 87.664062 61.652344 C 87.789062 61.417969 87.890625 61.242188 87.953125 61.125 L 88.027344 60.996094 L 88.050781 60.957031 L 86.691406 60.160156 L 85.425781 61.09375 C 85.425781 61.09375 85.492188 61.1875 85.617188 61.363281 C 86.589844 62.695312 91.039062 68.898438 95.796875 76.804688 C 100.558594 84.703125 105.628906 94.332031 107.832031 102.335938 L 109.136719 107.0625 L 110.832031 102.457031 C 111.34375 101.054688 111.535156 99.53125 111.539062 97.964844 C 111.535156 95.804688 111.164062 93.550781 110.625 91.359375 C 109 84.800781 105.839844 78.773438 105.8125 78.710938 L 104.417969 79.441406 L 103.425781 80.667969 L 104.113281 79.816406 L 103.425781 80.667969 L 104.113281 79.816406 L 103.425781 80.667969 L 103.464844 80.695312 C 103.875 81.042969 107.597656 84.21875 111.472656 90.105469 C 115.34375 95.992188 119.367188 104.5625 120.457031 115.769531 L 122.019531 115.617188 L 123.589844 115.464844 C 122.40625 103.234375 117.882812 93.933594 113.65625 87.703125 C 109.425781 81.46875 105.492188 78.285156 105.402344 78.214844 L 99.519531 73.472656 L 103.019531 80.171875 L 103.03125 80.195312 C 103.175781 80.472656 104.535156 83.136719 105.84375 86.636719 C 106.496094 88.386719 107.140625 90.34375 107.617188 92.300781 C 108.089844 94.261719 108.390625 96.226562 108.386719 97.964844 C 108.390625 99.261719 108.222656 100.429688 107.871094 101.371094 L 109.351562 101.914062 L 110.871094 101.496094 C 109.609375 96.9375 107.546875 92.046875 105.164062 87.25 C 98.023438 72.863281 87.988281 59.265625 87.960938 59.222656 L 86.542969 57.304688 L 85.332031 59.363281 C 85.304688 59.417969 82.863281 63.570312 80.425781 70.066406 C 77.988281 76.5625 75.535156 85.410156 75.53125 94.894531 C 75.53125 95.136719 75.535156 95.378906 75.539062 95.617188 L 77.113281 95.597656 L 78.5625 94.984375 C 77.378906 92.175781 76.414062 88.613281 75.765625 85.785156 C 75.441406 84.371094 75.191406 83.132812 75.023438 82.253906 C 74.9375 81.8125 74.875 81.464844 74.832031 81.226562 C 74.8125 81.109375 74.796875 81.015625 74.785156 80.953125 L 74.773438 80.863281 L 73.863281 75.335938 L 71.757812 80.527344 C 68.359375 88.902344 66.675781 97.957031 66.671875 106.585938 C 66.675781 112.925781 67.585938 119.042969 69.421875 124.5 C 71.5625 130.847656 75.082031 136.507812 79.71875 140.621094 C 84.351562 144.730469 90.15625 147.28125 96.664062 147.273438 C 98.054688 147.273438 99.46875 147.160156 100.910156 146.925781 C 107.871094 145.789062 113.617188 142.125 117.574219 137.039062 C 121.539062 131.957031 123.742188 125.457031 123.742188 118.589844 C 123.742188 117.554688 123.691406 116.511719 123.589844 115.464844 L 122.019531 115.617188 " fill-opacity="1" fill-rule="nonzero"/></g><path fill="#f79745" d="M 135.507812 299.652344 C 136.28125 312.941406 122.589844 315.183594 119.082031 302.34375 C 114.957031 284.257812 96.433594 212.78125 92.324219 184.859375 C 88.222656 156.9375 115.476562 151.046875 121.023438 179.84375 C 126.800781 209.832031 134.035156 282.082031 135.507812 299.652344 " fill-opacity="1" fill-rule="nonzero"/><path fill="#0f0a0a" d="M 135.507812 299.652344 L 133.933594 299.746094 C 133.957031 300.074219 133.960938 300.398438 133.960938 300.71875 C 133.960938 303.71875 133.117188 305.878906 131.96875 307.265625 C 130.808594 308.644531 129.347656 309.300781 127.828125 309.308594 C 126.503906 309.304688 125.101562 308.796875 123.804688 307.625 C 122.511719 306.457031 121.332031 304.601562 120.597656 301.929688 L 119.082031 302.34375 L 120.617188 301.992188 C 118.546875 292.90625 112.886719 270.535156 107.230469 246.921875 C 104.402344 235.117188 101.578125 223.011719 99.199219 212.117188 C 96.824219 201.226562 94.902344 191.542969 93.886719 184.632812 C 93.609375 182.761719 93.480469 181 93.480469 179.355469 C 93.480469 173.707031 94.988281 169.445312 97.167969 166.644531 C 99.359375 163.84375 102.171875 162.46875 105.078125 162.464844 C 107.832031 162.46875 110.761719 163.707031 113.382812 166.546875 C 116 169.382812 118.269531 173.84375 119.480469 180.140625 C 122.347656 195.035156 125.605469 220.59375 128.316406 244.578125 C 131.027344 268.570312 133.207031 291.027344 133.9375 299.785156 L 135.507812 299.652344 L 133.933594 299.746094 L 135.507812 299.652344 L 137.078125 299.519531 C 136.335938 290.707031 134.164062 268.253906 131.445312 244.226562 C 128.730469 220.199219 125.476562 194.632812 122.574219 179.542969 C 121.273438 172.8125 118.808594 167.792969 115.703125 164.410156 C 112.601562 161.035156 108.808594 159.308594 105.078125 159.316406 C 101.136719 159.304688 97.363281 161.242188 94.679688 164.710938 C 91.988281 168.183594 90.332031 173.15625 90.332031 179.355469 C 90.332031 181.164062 90.472656 183.074219 90.765625 185.089844 C 91.808594 192.136719 93.742188 201.859375 96.125 212.785156 C 99.695312 229.179688 104.28125 248.265625 108.359375 264.957031 C 112.4375 281.644531 116.007812 295.945312 117.546875 302.695312 L 117.5625 302.757812 C 118.421875 305.90625 119.875 308.316406 121.691406 309.960938 C 123.5 311.605469 125.679688 312.460938 127.828125 312.457031 C 130.296875 312.464844 132.691406 311.332031 134.390625 309.277344 C 136.097656 307.226562 137.113281 304.304688 137.113281 300.71875 C 137.113281 300.339844 137.101562 299.957031 137.078125 299.558594 L 137.078125 299.519531 L 135.507812 299.652344 " fill-opacity="1" fill-rule="nonzero"/><path fill="#bdbcbc" d="M 118.222656 168.113281 L 91.277344 172.535156 L 86.636719 144.230469 L 113.582031 139.8125 L 118.222656 168.113281 " fill-opacity="1" fill-rule="nonzero"/><path fill="#0f0a0a" d="M 118.222656 168.113281 L 117.964844 166.558594 L 92.574219 170.722656 L 88.445312 145.53125 L 112.28125 141.621094 L 116.667969 168.367188 L 118.222656 168.113281 L 117.964844 166.558594 L 118.222656 168.113281 L 119.777344 167.859375 L 114.882812 138.003906 L 84.828125 142.929688 L 89.972656 174.339844 L 120.03125 169.414062 L 119.777344 167.859375 L 118.222656 168.113281 " fill-opacity="1" fill-rule="nonzero"/><path fill="#0f0a0a" d="M 99.808594 142.070312 L 93.679688 94.953125 L 102.914062 141.5625 Z M 99.808594 142.070312 " fill-opacity="1" fill-rule="nonzero"/><path fill="#0f0a0a" d="M 87.027344 144.910156 C 87.027344 144.910156 86.671875 144.398438 86.050781 143.503906 C 85.746094 143.046875 85.355469 142.542969 84.941406 141.867188 C 84.539062 141.1875 84.078125 140.414062 83.582031 139.578125 C 83.078125 138.738281 82.664062 137.800781 82.15625 136.832031 C 81.632812 135.871094 81.222656 134.796875 80.734375 133.714844 C 80.230469 132.640625 79.847656 131.476562 79.390625 130.324219 C 78.945312 129.164062 78.585938 127.960938 78.175781 126.773438 C 77.808594 125.570312 77.453125 124.367188 77.125 123.179688 C 76.824219 121.980469 76.488281 120.816406 76.242188 119.667969 C 75.703125 117.386719 75.300781 115.238281 74.980469 113.390625 C 74.347656 109.703125 74.136719 107.21875 74.136719 107.21875 C 74.136719 107.21875 74.542969 109.679688 75.460938 113.292969 C 75.925781 115.097656 76.492188 117.195312 77.207031 119.402344 C 77.535156 120.515625 77.960938 121.640625 78.347656 122.796875 C 78.761719 123.9375 79.207031 125.09375 79.65625 126.238281 C 80.152344 127.371094 80.59375 128.519531 81.117188 129.613281 C 81.652344 130.699219 82.113281 131.796875 82.679688 132.796875 C 83.234375 133.804688 83.714844 134.804688 84.28125 135.683594 C 84.839844 136.566406 85.320312 137.449219 85.84375 138.175781 C 86.355469 138.902344 86.824219 139.574219 87.238281 140.164062 C 87.664062 140.753906 88.121094 141.261719 88.457031 141.683594 C 89.144531 142.527344 89.539062 143.011719 89.539062 143.011719 L 87.027344 144.910156 " fill-opacity="1" fill-rule="nonzero"/><path fill="#0f0a0a" d="M 94.972656 143.617188 C 94.972656 143.617188 94.832031 143.421875 94.566406 143.058594 C 94.304688 142.679688 93.914062 142.191406 93.433594 141.449219 C 92.964844 140.699219 92.34375 139.792969 91.785156 138.734375 C 91.179688 137.691406 90.585938 136.46875 89.953125 135.140625 C 89.664062 134.460938 89.355469 133.761719 89.039062 133.035156 C 88.757812 132.292969 88.460938 131.53125 88.160156 130.746094 C 87.890625 129.953125 87.613281 129.140625 87.324219 128.308594 C 87.074219 127.46875 86.816406 126.613281 86.550781 125.738281 C 86.066406 123.980469 85.597656 122.160156 85.199219 120.300781 C 84.796875 118.4375 84.429688 116.539062 84.132812 114.628906 C 82.882812 107.011719 82.453125 99.3125 82.367188 93.558594 C 82.277344 87.796875 82.523438 83.96875 82.523438 83.96875 C 82.523438 83.96875 82.472656 87.808594 82.855469 93.539062 C 83.238281 99.261719 84.0625 106.894531 85.679688 114.339844 C 86.070312 116.203125 86.527344 118.050781 87.015625 119.855469 C 87.5 121.660156 88.046875 123.414062 88.605469 125.09375 C 88.90625 125.929688 89.199219 126.75 89.484375 127.550781 C 89.804688 128.339844 90.109375 129.113281 90.414062 129.863281 C 90.738281 130.601562 91.0625 131.316406 91.367188 132.011719 C 91.707031 132.6875 92.03125 133.34375 92.34375 133.972656 C 93.007812 135.207031 93.625 136.332031 94.242188 137.273438 C 94.824219 138.257812 95.40625 139 95.855469 139.652344 C 96.320312 140.300781 96.777344 140.816406 97.042969 141.164062 C 97.324219 141.515625 97.476562 141.703125 97.476562 141.703125 L 94.972656 143.617188 " fill-opacity="1" fill-rule="nonzero"/><path fill="#0f0a0a" d="M 109.496094 139.617188 C 109.496094 139.617188 109.769531 139.046875 110.25 138.046875 C 110.480469 137.546875 110.808594 136.9375 111.09375 136.25 C 111.359375 135.558594 111.65625 134.789062 111.984375 133.945312 C 112.332031 133.105469 112.578125 132.113281 112.90625 131.105469 C 113.253906 130.09375 113.476562 128.992188 113.765625 127.855469 C 114.074219 126.730469 114.246094 125.53125 114.492188 124.324219 C 114.734375 123.117188 114.859375 121.867188 115.050781 120.628906 C 115.199219 119.378906 115.316406 118.128906 115.429688 116.894531 C 115.496094 115.65625 115.613281 114.441406 115.632812 113.257812 C 115.734375 110.894531 115.71875 108.683594 115.671875 106.789062 C 115.566406 102.996094 115.261719 100.476562 115.261719 100.476562 C 115.261719 100.476562 115.761719 102.960938 116.164062 106.757812 C 116.355469 108.652344 116.546875 110.871094 116.632812 113.257812 C 116.703125 114.453125 116.683594 115.6875 116.707031 116.945312 C 116.691406 118.203125 116.671875 119.480469 116.617188 120.757812 C 116.519531 122.035156 116.496094 123.320312 116.339844 124.578125 C 116.191406 125.832031 116.101562 127.078125 115.878906 128.265625 C 115.675781 129.457031 115.527344 130.621094 115.253906 131.699219 C 114.984375 132.785156 114.816406 133.816406 114.511719 134.765625 C 114.222656 135.722656 113.957031 136.589844 113.722656 137.367188 C 113.472656 138.125 113.210938 138.726562 113.015625 139.25 C 112.613281 140.285156 112.382812 140.875 112.382812 140.875 L 109.496094 139.617188 " fill-opacity="1" fill-rule="nonzero"/><path fill="#0f0a0a" d="M 104.152344 140.613281 C 104.152344 140.613281 104.234375 140.394531 104.382812 139.976562 C 104.519531 139.570312 104.78125 138.941406 105.007812 138.195312 C 105.207031 137.445312 105.515625 136.582031 105.722656 135.484375 C 105.984375 134.410156 106.171875 133.171875 106.371094 131.816406 C 106.441406 131.132812 106.515625 130.421875 106.589844 129.683594 C 106.632812 128.941406 106.671875 128.171875 106.714844 127.382812 C 106.726562 126.589844 106.730469 125.773438 106.742188 124.941406 C 106.714844 124.109375 106.683594 123.253906 106.660156 122.386719 C 106.554688 120.652344 106.40625 118.855469 106.171875 117.035156 C 105.941406 115.214844 105.660156 113.367188 105.304688 111.535156 C 103.929688 104.175781 101.644531 96.984375 99.691406 91.691406 C 97.738281 86.398438 96.121094 82.988281 96.121094 82.988281 C 96.121094 82.988281 97.914062 86.308594 100.148438 91.511719 C 102.378906 96.714844 105.054688 103.8125 106.84375 111.199219 C 107.300781 113.042969 107.6875 114.910156 108.019531 116.757812 C 108.359375 118.601562 108.605469 120.433594 108.804688 122.21875 C 108.878906 123.113281 108.957031 123.996094 109.03125 124.855469 C 109.0625 125.726562 109.101562 126.570312 109.132812 127.398438 C 109.132812 128.226562 109.128906 129.03125 109.128906 129.8125 C 109.089844 130.59375 109.050781 131.351562 109.015625 132.078125 C 108.882812 133.527344 108.75 134.859375 108.527344 136.03125 C 108.367188 137.203125 108.066406 138.253906 107.878906 139.109375 C 107.667969 139.949219 107.457031 140.535156 107.335938 140.96875 C 107.207031 141.390625 107.136719 141.613281 107.136719 141.613281 L 104.152344 140.613281 " fill-opacity="1" fill-rule="nonzero"/></svg>