<svg xmlns="http://www.w3.org/2000/svg" xmlns:xlink="http://www.w3.org/1999/xlink" width="500" zoomAndPan="magnify" viewBox="0 0 375 74.999997" height="100" preserveAspectRatio="xMidYMid meet" version="1.0"><defs><g/></defs><g fill="#ffffff" fill-opacity="1"><g transform="translate(161.134566, 35.695064)"><g><path d="M 27.328125 -31.90625 L 27.6875 -0.078125 L 19.265625 -0.28125 L 18.625 -18.421875 L 14.171875 -11.75 L 9.984375 -18.171875 L 9.34375 -0.40625 L 0.796875 -0.078125 L 1.25 -32.1875 L 9.703125 -32.0625 L 14.171875 -24.84375 L 18.453125 -32.015625 Z M 27.328125 -31.90625 "/></g></g></g><g fill="#ffffff" fill-opacity="1"><g transform="translate(189.626073, 35.695064)"><g><path d="M 23.265625 -29.65625 L 23.4375 -26.921875 L 12.125 0.28125 L 4.6875 -1.328125 L 4.40625 -3.09375 L 8.265625 -14.5625 L 0.796875 -30.8125 L 8.75 -32.265625 L 12.796875 -24.5625 L 15.84375 -32.296875 Z M 23.265625 -29.65625 "/></g></g></g><g fill="#00cdb4" fill-opacity="1"><g transform="translate(126.409519, 67.722154)"><g><path d="M 18.796875 -16.171875 L 20.515625 -12.5 L 20.265625 -2.09375 L 18.0625 -0.140625 L 2.03125 0 L 0.703125 -2.765625 L 1.359375 -9.5625 L 7.390625 -9.515625 L 7.875 -6.40625 L 13.234375 -6.515625 L 13.40625 -10.921875 L 2.59375 -12.140625 L 1.015625 -13.9375 L 1.1875 -25.65625 L 2.5625 -27.296875 L 15.40625 -27.96875 L 19.921875 -26.671875 L 20.234375 -20.0625 L 18.9375 -18.9375 L 14.03125 -18.6875 L 13.15625 -21.53125 L 8.5 -21.140625 L 8.125 -17.109375 Z M 18.796875 -16.171875 "/></g></g></g><g fill="#00cdb4" fill-opacity="1"><g transform="translate(147.62271, 67.722154)"><g><path d="M 0.703125 -27.9375 L 20.375 -27.9375 L 20.0625 -21.109375 L 14.484375 -20.859375 L 13.71875 -0.59375 L 6.40625 0.109375 L 6.578125 -20.890625 L 0.734375 -21.171875 Z M 0.703125 -27.9375 "/></g></g></g><g fill="#00cdb4" fill-opacity="1"><g transform="translate(168.695879, 67.722154)"><g><path d="M 20.296875 -25.859375 L 20.4375 -23.484375 L 10.5625 0.25 L 4.09375 -1.15625 L 3.84375 -2.6875 L 7.203125 -12.703125 L 0.703125 -26.875 L 7.625 -28.140625 L 11.171875 -21.421875 L 13.828125 -28.171875 Z M 20.296875 -25.859375 "/></g></g></g><g fill="#00cdb4" fill-opacity="1"><g transform="translate(189.839059, 67.722154)"><g><path d="M 17.671875 -6.609375 L 18.484375 0.03125 L 0.703125 0.03125 L 0.9375 -28.0625 L 8.4375 -27.609375 L 8.046875 -6.71875 Z M 17.671875 -6.609375 "/></g></g></g><g fill="#00cdb4" fill-opacity="1"><g transform="translate(209.021938, 67.722154)"><g><path d="M 17.25 -6.328125 L 17.640625 -0.0625 L 0.703125 -0.0625 L 0.703125 -28.0625 L 17.078125 -27.546875 L 16.875 -21.140625 L 7.875 -21.25 L 7.875 -17.75 L 13.6875 -17.390625 L 13.6875 -11.3125 L 7.84375 -11.65625 L 7.8125 -6.859375 Z M 17.25 -6.328125 "/></g></g></g><g fill="#00cdb4" fill-opacity="1"><g transform="translate(227.36469, 67.722154)"><g><path d="M 18.796875 -16.171875 L 20.515625 -12.5 L 20.265625 -2.09375 L 18.0625 -0.140625 L 2.03125 0 L 0.703125 -2.765625 L 1.359375 -9.5625 L 7.390625 -9.515625 L 7.875 -6.40625 L 13.234375 -6.515625 L 13.40625 -10.921875 L 2.59375 -12.140625 L 1.015625 -13.9375 L 1.1875 -25.65625 L 2.5625 -27.296875 L 15.40625 -27.96875 L 19.921875 -26.671875 L 20.234375 -20.0625 L 18.9375 -18.9375 L 14.03125 -18.6875 L 13.15625 -21.53125 L 8.5 -21.140625 L 8.125 -17.109375 Z M 18.796875 -16.171875 "/></g></g></g></svg>